<svg width="35" height="34" viewBox="0 0 35 34" fill="none" xmlns="http://www.w3.org/2000/svg">
<path fill-rule="evenodd" clip-rule="evenodd" d="M12.3555 9.5625C12.3555 6.62849 14.734 4.25 17.668 4.25C20.602 4.25 22.9805 6.62849 22.9805 9.5625C22.9805 12.4965 20.602 14.875 17.668 14.875C14.734 14.875 12.3555 12.4965 12.3555 9.5625Z" fill="#262626"/>
<path fill-rule="evenodd" clip-rule="evenodd" d="M22.9805 13.8125C22.9805 11.4653 24.8833 9.5625 27.2305 9.5625C29.5777 9.5625 31.4805 11.4653 31.4805 13.8125C31.4805 16.1597 29.5777 18.0625 27.2305 18.0625C24.8833 18.0625 22.9805 16.1597 22.9805 13.8125Z" fill="#262626"/>
<path fill-rule="evenodd" clip-rule="evenodd" d="M3.85547 13.8125C3.85547 11.4653 5.75826 9.5625 8.10547 9.5625C10.4527 9.5625 12.3555 11.4653 12.3555 13.8125C12.3555 16.1597 10.4527 18.0625 8.10547 18.0625C5.75826 18.0625 3.85547 16.1597 3.85547 13.8125Z" fill="#262626"/>
<path fill-rule="evenodd" clip-rule="evenodd" d="M9.60694 21.4165C11.3041 18.7629 14.2798 17 17.668 17C21.0566 17 24.0326 18.7633 25.7296 21.4175C26.9029 23.2524 27.4104 25.4649 27.1723 27.6221C27.1351 27.9592 26.9392 28.2583 26.645 28.4271C23.9996 29.945 20.9335 30.8125 17.668 30.8125C14.4024 30.8125 11.3363 29.945 8.6909 28.4271C8.39672 28.2583 8.20081 27.9592 8.1636 27.6221C7.92546 25.4645 8.4333 23.2516 9.60694 21.4165Z" fill="#262626"/>
<path d="M7.86787 20.1927C7.85081 20.2189 7.83385 20.2452 7.817 20.2716C6.44926 22.4101 5.82333 24.957 6.01548 27.4678C5.15408 27.3369 4.31829 27.1265 3.51608 26.8439L3.35322 26.7866C3.05613 26.682 2.84854 26.4122 2.82356 26.0982L2.80986 25.9261C2.79866 25.7853 2.79297 25.6432 2.79297 25.5C2.79297 22.6456 5.04412 20.317 7.86787 20.1927Z" fill="#262626"/>
<path d="M29.321 27.4677C29.513 24.9574 28.8874 22.4111 27.5202 20.2728C27.5031 20.246 27.4859 20.2193 27.4686 20.1927C30.2921 20.3173 32.543 22.6458 32.543 25.5C32.543 25.6432 32.5373 25.7853 32.5261 25.9261L32.5124 26.0982C32.4874 26.4122 32.2798 26.682 31.9827 26.7866L31.8199 26.8439C31.0178 27.1264 30.1822 27.3368 29.321 27.4677Z" fill="#262626"/>
</svg>
