<svg width="34" height="34" viewBox="0 0 34 34" fill="none" xmlns="http://www.w3.org/2000/svg">
<path d="M15.9375 7.56066C15.9375 7.05752 15.6739 6.60275 15.3691 6.20245C15.0562 5.79148 14.875 5.304 14.875 4.78125C14.875 3.31424 16.3021 2.125 18.0625 2.125C19.8229 2.125 21.25 3.31424 21.25 4.78125C21.25 5.304 21.0688 5.79148 20.7559 6.20245C20.4511 6.60275 20.1875 7.05753 20.1875 7.56066C20.1875 8.03149 20.5809 8.40735 21.0509 8.3793C23.7576 8.21779 26.4206 7.89548 29.0306 7.42189C29.3178 7.36977 29.6138 7.43813 29.8491 7.61091C30.0844 7.78369 30.2383 8.04568 30.2745 8.33534C30.5919 10.8704 30.7718 13.4479 30.8067 16.06C30.8136 16.579 30.3922 16.9999 29.8732 17C29.37 17 28.9152 16.7364 28.5149 16.4316C28.104 16.1187 27.6165 15.9375 27.0937 15.9375C25.6267 15.9375 24.4375 17.3646 24.4375 19.125C24.4375 20.8854 25.6267 22.3125 27.0937 22.3125C27.6165 22.3125 28.104 22.1313 28.5149 21.8184C28.9152 21.5136 29.37 21.25 29.8732 21.25C30.3129 21.25 30.6621 21.6207 30.6304 22.0593C30.4622 24.3806 30.1794 26.6703 29.7873 28.9228C29.7104 29.3646 29.3645 29.7105 28.9227 29.7874C26.3456 30.2359 23.7198 30.5415 21.0538 30.6958C20.582 30.7231 20.1875 30.3457 20.1875 29.8732C20.1875 29.37 20.4511 28.9152 20.7559 28.5149C21.0688 28.104 21.25 27.6165 21.25 27.0938C21.25 25.6267 19.8229 24.4375 18.0625 24.4375C16.3021 24.4375 14.875 25.6267 14.875 27.0938C14.875 27.6165 15.0562 28.104 15.3691 28.5149C15.6739 28.9152 15.9375 29.37 15.9375 29.8732C15.9375 30.3854 15.5181 30.7991 15.0061 30.7846C12.7543 30.7207 10.5292 30.549 8.33585 30.2744C8.04619 30.2381 7.7842 30.0843 7.61143 29.849C7.43864 29.6137 7.37029 29.3176 7.42241 29.0304C7.83732 26.7439 8.13613 24.4168 8.31243 22.0552C8.34499 21.6191 7.99797 21.25 7.56066 21.25C7.05752 21.25 6.60275 21.5136 6.20245 21.8184C5.79148 22.1313 5.304 22.3125 4.78125 22.3125C3.31424 22.3125 2.125 20.8854 2.125 19.125C2.125 17.3646 3.31424 15.9375 4.78125 15.9375C5.304 15.9375 5.79148 16.1187 6.20245 16.4316C6.60275 16.7364 7.05753 17 7.56066 17C8.07968 17 8.5011 16.5792 8.49396 16.0603C8.46223 13.7536 8.31388 11.4754 8.05458 9.2314C8.01735 8.90914 8.12937 8.58753 8.35876 8.35814C8.58815 8.12875 8.90976 8.01673 9.23202 8.05396C11.1336 8.27369 13.0597 8.41376 15.0068 8.4707C15.5184 8.48565 15.9375 8.07241 15.9375 7.56066Z" fill="#262626"/>
</svg>
