<svg width="34" height="34" viewBox="0 0 34 34" fill="none" xmlns="http://www.w3.org/2000/svg">
<path fill-rule="evenodd" clip-rule="evenodd" d="M14.8767 5.37991V12.4922C14.8767 13.6194 14.4289 14.7004 13.6319 15.4974L10.2644 18.8649C12.7398 18.6887 15.2419 19.1822 17.4769 20.2997C19.975 21.5487 22.866 21.8762 25.5697 21.2003L25.9735 21.0994L20.3715 15.4974C19.5745 14.7004 19.1267 13.6194 19.1267 12.4922V5.37991C18.4242 5.3352 17.7157 5.3125 17.0017 5.3125C16.2877 5.3125 15.5791 5.3352 14.8767 5.37991ZM21.2517 5.57566C21.7804 5.57632 22.2389 5.18263 22.306 4.64452C22.3786 4.06223 21.9655 3.53132 21.3832 3.45871C21.0196 3.41338 20.6544 3.37362 20.2876 3.33951C19.2055 3.2389 18.1095 3.1875 17.0017 3.1875C15.8939 3.1875 14.7979 3.2389 13.7158 3.33951C13.349 3.37362 12.9837 3.41338 12.6202 3.45871C12.0379 3.53132 11.6247 4.06223 11.6974 4.64452C11.7645 5.18263 12.223 5.57632 12.7517 5.57566V12.4922C12.7517 13.0558 12.5278 13.5963 12.1293 13.9948L3.21394 22.9102C0.917322 25.2068 1.93469 29.2505 5.29772 29.8247C9.10265 30.4743 13.0131 30.8125 17.0017 30.8125C20.9903 30.8125 24.9007 30.4743 28.7057 29.8247C32.0687 29.2505 33.0861 25.2068 30.7895 22.9102L21.8741 13.9948C21.4756 13.5963 21.2517 13.0558 21.2517 12.4922V5.57566Z" fill="#262626"/>
</svg>
