<svg width="35" height="34" viewBox="0 0 35 34" fill="none" xmlns="http://www.w3.org/2000/svg">
<path d="M16.2695 6.42156C14.1226 5.04729 11.5697 4.25 8.83203 4.25C7.21955 4.25 5.66941 4.52675 4.22796 5.03623C3.80339 5.18629 3.51953 5.58769 3.51953 6.038V26.2255C3.51953 26.5704 3.68695 26.8939 3.96856 27.093C4.25016 27.2921 4.61091 27.3422 4.93611 27.2273C6.15328 26.7971 7.46411 26.5625 8.83203 26.5625C11.6583 26.5625 14.2483 27.5644 16.2695 29.2339V6.42156Z" fill="#262626"/>
<path d="M18.3945 29.2339C20.4158 27.5644 23.0058 26.5625 25.832 26.5625C27.1999 26.5625 28.5108 26.7971 29.728 27.2273C30.0531 27.3422 30.4139 27.2921 30.6955 27.093C30.9771 26.8939 31.1445 26.5704 31.1445 26.2255V6.038C31.1445 5.58769 30.8607 5.18629 30.4361 5.03623C28.9947 4.52675 27.4445 4.25 25.832 4.25C23.0944 4.25 20.5414 5.04729 18.3945 6.42156V29.2339Z" fill="#262626"/>
</svg>
